<svg width="17" height="17" viewBox="0 0 17 17" fill="none" xmlns="http://www.w3.org/2000/svg">
<path d="M1 10.6429L0.280599 9.94826L0 10.2389V10.6429H1ZM10.3103 1L11.0297 0.305405C10.8413 0.110231 10.5816 0 10.3103 0C10.039 0 9.77939 0.110231 9.59094 0.305405L10.3103 1ZM15.4828 6.35714L16.2022 7.05174C16.5763 6.66424 16.5763 6.05004 16.2022 5.66255L15.4828 6.35714ZM6.17241 16V17H6.59694L6.89182 16.6946L6.17241 16ZM1 16H0C0 16.5523 0.447715 17 1 17L1 16ZM1.7194 11.3375L11.0297 1.69459L9.59094 0.305405L0.280599 9.94826L1.7194 11.3375ZM9.59094 1.69459L14.7634 7.05174L16.2022 5.66255L11.0297 0.305405L9.59094 1.69459ZM14.7634 5.66255L5.45301 15.3054L6.89182 16.6946L16.2022 7.05174L14.7634 5.66255ZM6.17241 15H1V17H6.17241V15ZM2 16V10.6429H0V16H2ZM6.48749 4.90888L11.6599 10.266L13.0987 8.87683L7.9263 3.51969L6.48749 4.90888ZM8.75862 17H16V15H8.75862V17Z" fill="#001AFF" fill-opacity="0.79"/>
</svg>
